<mxfile host="app.diagrams.net" agent="Mozilla/5.0 (Windows NT 10.0; Win64; x64) AppleWebKit/537.36 (KHTML, like Gecko) Chrome/133.0.0.0 Safari/537.36" version="26.0.16">
  <diagram name="Страница — 1" id="RsFtI0YAGa1BF4c-dnOY">
    <mxGraphModel dx="2048" dy="649" grid="1" gridSize="10" guides="1" tooltips="1" connect="1" arrows="1" fold="1" page="1" pageScale="1" pageWidth="827" pageHeight="1169" math="0" shadow="0">
      <root>
        <mxCell id="0" />
        <mxCell id="1" parent="0" />
        <mxCell id="jRFokvMpb14ZHNHWIdY9-10" style="edgeStyle=none;curved=1;rounded=0;orthogonalLoop=1;jettySize=auto;html=1;exitX=1;exitY=1;exitDx=0;exitDy=0;exitPerimeter=0;fontSize=12;startSize=8;endSize=8;" edge="1" parent="1" source="nT1kWPmXPeKq1CZ_4aY0-1" target="nT1kWPmXPeKq1CZ_4aY0-17">
          <mxGeometry relative="1" as="geometry" />
        </mxCell>
        <mxCell id="jRFokvMpb14ZHNHWIdY9-11" style="edgeStyle=none;curved=1;rounded=0;orthogonalLoop=1;jettySize=auto;html=1;exitX=1;exitY=0.3333333333333333;exitDx=0;exitDy=0;exitPerimeter=0;fontSize=12;startSize=8;endSize=8;" edge="1" parent="1" source="nT1kWPmXPeKq1CZ_4aY0-1" target="nT1kWPmXPeKq1CZ_4aY0-15">
          <mxGeometry relative="1" as="geometry" />
        </mxCell>
        <mxCell id="nT1kWPmXPeKq1CZ_4aY0-1" value="Организаторы" style="shape=umlActor;verticalLabelPosition=bottom;verticalAlign=top;html=1;outlineConnect=0;fillColor=#dae8fc;strokeColor=#6c8ebf;" parent="1" vertex="1">
          <mxGeometry x="20" y="160" width="30" height="60" as="geometry" />
        </mxCell>
        <mxCell id="jRFokvMpb14ZHNHWIdY9-5" style="edgeStyle=none;curved=1;rounded=0;orthogonalLoop=1;jettySize=auto;html=1;exitX=0;exitY=1;exitDx=0;exitDy=0;exitPerimeter=0;fontSize=12;startSize=8;endSize=8;" edge="1" parent="1" source="nT1kWPmXPeKq1CZ_4aY0-5" target="nT1kWPmXPeKq1CZ_4aY0-8">
          <mxGeometry relative="1" as="geometry" />
        </mxCell>
        <mxCell id="jRFokvMpb14ZHNHWIdY9-6" style="edgeStyle=none;curved=1;rounded=0;orthogonalLoop=1;jettySize=auto;html=1;exitX=0;exitY=0.3333333333333333;exitDx=0;exitDy=0;exitPerimeter=0;fontSize=12;startSize=8;endSize=8;" edge="1" parent="1" source="nT1kWPmXPeKq1CZ_4aY0-5" target="nT1kWPmXPeKq1CZ_4aY0-9">
          <mxGeometry relative="1" as="geometry" />
        </mxCell>
        <mxCell id="jRFokvMpb14ZHNHWIdY9-7" style="edgeStyle=none;curved=1;rounded=0;orthogonalLoop=1;jettySize=auto;html=1;exitX=0.5;exitY=0.5;exitDx=0;exitDy=0;exitPerimeter=0;fontSize=12;startSize=8;endSize=8;" edge="1" parent="1" source="nT1kWPmXPeKq1CZ_4aY0-5" target="nT1kWPmXPeKq1CZ_4aY0-12">
          <mxGeometry relative="1" as="geometry" />
        </mxCell>
        <mxCell id="jRFokvMpb14ZHNHWIdY9-8" style="edgeStyle=none;curved=1;rounded=0;orthogonalLoop=1;jettySize=auto;html=1;exitX=1;exitY=1;exitDx=0;exitDy=0;exitPerimeter=0;fontSize=12;startSize=8;endSize=8;" edge="1" parent="1" source="nT1kWPmXPeKq1CZ_4aY0-5" target="nT1kWPmXPeKq1CZ_4aY0-13">
          <mxGeometry relative="1" as="geometry" />
        </mxCell>
        <mxCell id="jRFokvMpb14ZHNHWIdY9-9" style="edgeStyle=none;curved=1;rounded=0;orthogonalLoop=1;jettySize=auto;html=1;exitX=1;exitY=0.3333333333333333;exitDx=0;exitDy=0;exitPerimeter=0;fontSize=12;startSize=8;endSize=8;" edge="1" parent="1" source="nT1kWPmXPeKq1CZ_4aY0-5" target="nT1kWPmXPeKq1CZ_4aY0-14">
          <mxGeometry relative="1" as="geometry" />
        </mxCell>
        <mxCell id="nT1kWPmXPeKq1CZ_4aY0-5" value="Модераторы" style="shape=umlActor;verticalLabelPosition=bottom;verticalAlign=top;html=1;outlineConnect=0;fillColor=#dae8fc;strokeColor=#6c8ebf;" parent="1" vertex="1">
          <mxGeometry x="510" y="160" width="30" height="60" as="geometry" />
        </mxCell>
        <mxCell id="jRFokvMpb14ZHNHWIdY9-1" style="edgeStyle=none;curved=1;rounded=0;orthogonalLoop=1;jettySize=auto;html=1;exitX=0;exitY=1;exitDx=0;exitDy=0;exitPerimeter=0;fontSize=12;startSize=8;endSize=8;" edge="1" parent="1" source="nT1kWPmXPeKq1CZ_4aY0-6" target="nT1kWPmXPeKq1CZ_4aY0-8">
          <mxGeometry relative="1" as="geometry" />
        </mxCell>
        <mxCell id="jRFokvMpb14ZHNHWIdY9-3" style="edgeStyle=none;curved=1;rounded=0;orthogonalLoop=1;jettySize=auto;html=1;exitX=0.5;exitY=0.5;exitDx=0;exitDy=0;exitPerimeter=0;fontSize=12;startSize=8;endSize=8;" edge="1" parent="1" source="nT1kWPmXPeKq1CZ_4aY0-6" target="nT1kWPmXPeKq1CZ_4aY0-11">
          <mxGeometry relative="1" as="geometry" />
        </mxCell>
        <mxCell id="jRFokvMpb14ZHNHWIdY9-4" style="edgeStyle=none;curved=1;rounded=0;orthogonalLoop=1;jettySize=auto;html=1;exitX=1;exitY=0.3333333333333333;exitDx=0;exitDy=0;exitPerimeter=0;fontSize=12;startSize=8;endSize=8;" edge="1" parent="1" source="nT1kWPmXPeKq1CZ_4aY0-6" target="nT1kWPmXPeKq1CZ_4aY0-12">
          <mxGeometry relative="1" as="geometry" />
        </mxCell>
        <mxCell id="nT1kWPmXPeKq1CZ_4aY0-6" value="Зарегистрированный&amp;nbsp;&lt;div&gt;пользователь&lt;/div&gt;" style="shape=umlActor;verticalLabelPosition=bottom;verticalAlign=top;html=1;outlineConnect=0;fillColor=#dae8fc;strokeColor=#6c8ebf;" parent="1" vertex="1">
          <mxGeometry x="510" y="510" width="30" height="60" as="geometry" />
        </mxCell>
        <mxCell id="jRFokvMpb14ZHNHWIdY9-14" style="edgeStyle=none;curved=1;rounded=0;orthogonalLoop=1;jettySize=auto;html=1;exitX=1;exitY=1;exitDx=0;exitDy=0;exitPerimeter=0;fontSize=12;startSize=8;endSize=8;" edge="1" parent="1" source="nT1kWPmXPeKq1CZ_4aY0-7" target="nT1kWPmXPeKq1CZ_4aY0-18">
          <mxGeometry relative="1" as="geometry" />
        </mxCell>
        <mxCell id="jRFokvMpb14ZHNHWIdY9-15" style="edgeStyle=none;curved=1;rounded=0;orthogonalLoop=1;jettySize=auto;html=1;exitX=0.5;exitY=0.5;exitDx=0;exitDy=0;exitPerimeter=0;fontSize=12;startSize=8;endSize=8;" edge="1" parent="1" source="nT1kWPmXPeKq1CZ_4aY0-7" target="nT1kWPmXPeKq1CZ_4aY0-19">
          <mxGeometry relative="1" as="geometry" />
        </mxCell>
        <mxCell id="nT1kWPmXPeKq1CZ_4aY0-7" value="Жюри" style="shape=umlActor;verticalLabelPosition=bottom;verticalAlign=top;html=1;outlineConnect=0;fillColor=#dae8fc;strokeColor=#6c8ebf;" parent="1" vertex="1">
          <mxGeometry x="20" y="510" width="30" height="60" as="geometry" />
        </mxCell>
        <mxCell id="nT1kWPmXPeKq1CZ_4aY0-8" value="Просмотр информации о мероприятии" style="ellipse;whiteSpace=wrap;html=1;fillColor=#dae8fc;strokeColor=#6c8ebf;" parent="1" vertex="1">
          <mxGeometry x="150" y="230" width="120" height="80" as="geometry" />
        </mxCell>
        <mxCell id="nT1kWPmXPeKq1CZ_4aY0-9" value="Регистрация в системе" style="ellipse;whiteSpace=wrap;html=1;fillColor=#dae8fc;strokeColor=#6c8ebf;" parent="1" vertex="1">
          <mxGeometry x="280" y="90" width="120" height="80" as="geometry" />
        </mxCell>
        <mxCell id="nT1kWPmXPeKq1CZ_4aY0-10" value="Изменение профиля" style="ellipse;whiteSpace=wrap;html=1;fillColor=#dae8fc;strokeColor=#6c8ebf;" parent="1" vertex="1">
          <mxGeometry x="150" y="130" width="120" height="80" as="geometry" />
        </mxCell>
        <mxCell id="nT1kWPmXPeKq1CZ_4aY0-11" value="Работа в группе" style="ellipse;whiteSpace=wrap;html=1;fillColor=#dae8fc;strokeColor=#6c8ebf;" parent="1" vertex="1">
          <mxGeometry x="280" y="580" width="120" height="80" as="geometry" />
        </mxCell>
        <mxCell id="nT1kWPmXPeKq1CZ_4aY0-12" value="Регистрация на мероприятие" style="ellipse;whiteSpace=wrap;html=1;fillColor=#dae8fc;strokeColor=#6c8ebf;" parent="1" vertex="1">
          <mxGeometry x="150" y="620" width="120" height="80" as="geometry" />
        </mxCell>
        <mxCell id="nT1kWPmXPeKq1CZ_4aY0-13" value="Выбор активности для модерации" style="ellipse;whiteSpace=wrap;html=1;fillColor=#dae8fc;strokeColor=#6c8ebf;" parent="1" vertex="1">
          <mxGeometry x="150" y="30" width="120" height="80" as="geometry" />
        </mxCell>
        <mxCell id="nT1kWPmXPeKq1CZ_4aY0-14" value="Координация участников" style="ellipse;whiteSpace=wrap;html=1;fillColor=#dae8fc;strokeColor=#6c8ebf;" parent="1" vertex="1">
          <mxGeometry x="280" y="180" width="120" height="80" as="geometry" />
        </mxCell>
        <mxCell id="nT1kWPmXPeKq1CZ_4aY0-16" value="Добавление мероприятий и активностей" style="ellipse;whiteSpace=wrap;html=1;fillColor=#dae8fc;strokeColor=#6c8ebf;" parent="1" vertex="1">
          <mxGeometry x="150" y="330" width="120" height="80" as="geometry" />
        </mxCell>
        <mxCell id="nT1kWPmXPeKq1CZ_4aY0-17" value="Управление спонсорами" style="ellipse;whiteSpace=wrap;html=1;fillColor=#dae8fc;strokeColor=#6c8ebf;" parent="1" vertex="1">
          <mxGeometry x="280" y="380" width="120" height="80" as="geometry" />
        </mxCell>
        <mxCell id="nT1kWPmXPeKq1CZ_4aY0-18" value="Просмотр информации о активностях оценки" style="ellipse;whiteSpace=wrap;html=1;fillColor=#dae8fc;strokeColor=#6c8ebf;" parent="1" vertex="1">
          <mxGeometry x="150" y="430" width="120" height="80" as="geometry" />
        </mxCell>
        <mxCell id="nT1kWPmXPeKq1CZ_4aY0-19" value="Оценка участников и активностей" style="ellipse;whiteSpace=wrap;html=1;fillColor=#dae8fc;strokeColor=#6c8ebf;" parent="1" vertex="1">
          <mxGeometry x="280" y="480" width="120" height="80" as="geometry" />
        </mxCell>
        <mxCell id="nT1kWPmXPeKq1CZ_4aY0-20" value="Ввод результатов оценок" style="ellipse;whiteSpace=wrap;html=1;fillColor=#dae8fc;strokeColor=#6c8ebf;" parent="1" vertex="1">
          <mxGeometry x="150" y="530" width="120" height="80" as="geometry" />
        </mxCell>
        <mxCell id="jRFokvMpb14ZHNHWIdY9-2" style="edgeStyle=none;curved=1;rounded=0;orthogonalLoop=1;jettySize=auto;html=1;exitX=0;exitY=0.3333333333333333;exitDx=0;exitDy=0;exitPerimeter=0;entryX=0.782;entryY=0.976;entryDx=0;entryDy=0;entryPerimeter=0;fontSize=12;startSize=8;endSize=8;" edge="1" parent="1" source="nT1kWPmXPeKq1CZ_4aY0-6" target="nT1kWPmXPeKq1CZ_4aY0-10">
          <mxGeometry relative="1" as="geometry" />
        </mxCell>
        <mxCell id="nT1kWPmXPeKq1CZ_4aY0-15" value="Управление участниками" style="ellipse;whiteSpace=wrap;html=1;fillColor=#dae8fc;strokeColor=#6c8ebf;" parent="1" vertex="1">
          <mxGeometry x="280" y="280" width="120" height="80" as="geometry" />
        </mxCell>
        <mxCell id="jRFokvMpb14ZHNHWIdY9-12" style="edgeStyle=none;curved=1;rounded=0;orthogonalLoop=1;jettySize=auto;html=1;exitX=0.5;exitY=0.5;exitDx=0;exitDy=0;exitPerimeter=0;entryX=0.056;entryY=0.365;entryDx=0;entryDy=0;entryPerimeter=0;fontSize=12;startSize=8;endSize=8;" edge="1" parent="1" source="nT1kWPmXPeKq1CZ_4aY0-1" target="nT1kWPmXPeKq1CZ_4aY0-16">
          <mxGeometry relative="1" as="geometry" />
        </mxCell>
        <mxCell id="jRFokvMpb14ZHNHWIdY9-13" style="edgeStyle=none;curved=1;rounded=0;orthogonalLoop=1;jettySize=auto;html=1;exitX=1;exitY=0.3333333333333333;exitDx=0;exitDy=0;exitPerimeter=0;entryX=0.005;entryY=0.388;entryDx=0;entryDy=0;entryPerimeter=0;fontSize=12;startSize=8;endSize=8;" edge="1" parent="1" source="nT1kWPmXPeKq1CZ_4aY0-7" target="nT1kWPmXPeKq1CZ_4aY0-20">
          <mxGeometry relative="1" as="geometry" />
        </mxCell>
      </root>
    </mxGraphModel>
  </diagram>
</mxfile>
